<?xml version="1.0" encoding="UTF-8"?>
<svg id="Layer_1" xmlns="http://www.w3.org/2000/svg" version="1.1" xmlns:xlink="http://www.w3.org/1999/xlink" viewBox="0 0 1086.37 299.27">
  <!-- Generator: Adobe Illustrator 29.0.0, SVG Export Plug-In . SVG Version: 2.1.0 Build 186)  -->
  <defs>
    <style>
      .st0 {
        fill: url(#grd42801);
      }

      .st0, .st1, .st2 {
        fill-rule: evenodd;
      }

      .st1 {
        fill: url(#grd42802);
      }

      .st3 {
        fill: #d9981e;
      }

      .st2 {
        fill: url(#grd4280);
      }
    </style>
    <linearGradient id="grd4280" x1="706.92" y1="149.63" x2="974.81" y2="149.63" gradientUnits="userSpaceOnUse">
      <stop offset="0" stop-color="#f2ea79"/>
      <stop offset=".5" stop-color="#d9981e"/>
      <stop offset="1" stop-color="#a67e33"/>
    </linearGradient>
    <linearGradient id="grd42801" data-name="grd4280" x1="781.83" y1="160.84" x2="1049.26" y2="160.84" xlink:href="#grd4280"/>
    <linearGradient id="grd42802" data-name="grd4280" x1="925.41" y1="172.5" x2="1061.45" y2="172.5" xlink:href="#grd4280"/>
  </defs>
  <g id="Folder_1">
    <path class="st2" d="M706.94,147.83c.02-1.51.06-3.02.13-4.54.35-7.99,1.35-16.05,3.04-24.13,16.83-80.45,95.68-132.03,176.14-115.21,36.85,7.71,67.63,28.42,88.57,56.35-20.28-25.13-49.04-43.67-83.12-50.8-45.97-9.61-91.41,3.69-124.45,32.15,17.58,3.52,54.78,7.97,88.84-7.48,0,0-34.76,22.95-93.8,11.96-12.77,12.07-23.44,26.53-31.22,42.88,19.43,4.93,94.78,20.04,164.12-21.06,0,0-62.42,52.43-168.69,31.76-2.69,7.07-4.87,14.44-6.46,22.08-1.81,8.68-2.81,17.33-3.05,25.89,13.18,5.11,34.67,10.76,57.13,5.5,0,0-23.42,9.64-57.18-1.54,0,10.7,1.19,21.22,3.47,31.41,9.27,3.11,52.1,16.08,92.04,4.58,0,0-34.64,15.87-90.79.56,4.62,17.61,12.51,34.11,23.11,48.68,21.35,5.54,84.43,17.94,142.49-10.05,0,0-50.03,34.96-133.88,20.78,19.97,22.61,47.14,39.2,78.94,45.85,25.59,5.35,51.02,3.6,74.23-3.91-25.16,9.16-53.1,11.64-81.23,5.75-33.96-7.1-62.77-25.26-83.46-49.91-1.51-1.8-2.97-3.63-4.4-5.49-19.76-25.92-30.96-58.19-30.51-92.06Z"/>
    <polygon class="st0" points="963.37 274.97 781.83 132.7 1049.26 46.72 901.98 155.57 963.37 274.97"/>
    <polygon class="st1" points="1017.76 230.56 925.41 158.19 1061.45 114.45 986.53 169.82 1017.76 230.56"/>
  </g>
  <g>
    <path class="st3" d="M104.95,160.42h5.86v9.24h-7.42c-12.31,0-20.87-4.17-25.7-12.52-5.98,5.36-13.34,8.05-22.08,8.05-9.89,0-17.71-3.23-23.46-9.69-4.83-5.46-7.24-12.27-7.24-20.41,0-9.54,3.22-17.18,9.66-22.95,5.63-5.07,12.59-7.6,20.87-7.6,7.47,0,13.74,1.89,18.8,5.66v-8.05l11.56-5.21v46.49c0,11.32,6.38,16.99,19.15,16.99ZM74.25,121.53c-5.06-5.26-11.21-7.9-18.46-7.9-5.75,0-10.44,2.01-14.06,6.03-3.62,4.02-5.43,9.21-5.43,15.57s1.81,11.62,5.43,15.5c3.62,3.87,8.37,5.81,14.23,5.81,7.47,0,13.68-2.83,18.63-8.49-.23-1.79-.35-3.23-.35-4.32v-22.2ZM51.83,85.48c-4.72,0-7.07-2.09-7.07-6.26s2.36-5.96,7.07-5.96,6.73,1.99,6.73,5.96c0,4.17-2.24,6.26-6.73,6.26ZM71.49,85.48c-4.72,0-7.07-2.09-7.07-6.26s2.36-5.96,7.07-5.96,6.73,1.99,6.73,5.96c0,4.17-2.24,6.26-6.73,6.26Z"/>
    <path class="st3" d="M162.91,160.42h6.04v9.24h-7.42c-10.35,0-18.11-3.03-23.29-9.09-5.41,6.06-13.22,9.09-23.46,9.09h-7.42v-9.24h6.04c12.65,0,18.97-5.66,18.97-16.99v-32.33l11.56-5.21v37.55c0,11.32,6.32,16.99,18.97,16.99ZM123.75,185.31c4.6,0,6.9,2.03,6.9,6.11s-2.3,6.11-6.9,6.11-6.9-2.04-6.9-6.11,2.3-6.11,6.9-6.11ZM143.42,185.31c4.6,0,6.9,2.03,6.9,6.11s-2.3,6.11-6.9,6.11-6.9-2.04-6.9-6.11,2.3-6.11,6.9-6.11Z"/>
    <path class="st3" d="M165.5,169.66v-9.24h23.46v9.24h-23.46Z"/>
    <path class="st3" d="M185.51,169.66v-9.24h23.46v9.24h-23.46Z"/>
    <path class="st3" d="M205.52,169.66v-9.24h23.46v9.24h-23.46Z"/>
    <path class="st3" d="M225.52,169.66v-9.24h23.46v9.24h-23.46Z"/>
    <path class="st3" d="M245.53,169.66v-9.24h23.46v9.24h-23.46Z"/>
    <path class="st3" d="M265.54,169.66v-9.24h23.46v9.24h-23.46Z"/>
    <path class="st3" d="M285.55,169.66v-9.24h23.46v9.24h-23.46Z"/>
    <path class="st3" d="M305.56,169.66v-9.24h23.46v9.24h-23.46Z"/>
    <path class="st3" d="M325.57,169.66v-9.24h23.46v9.24h-23.46Z"/>
    <path class="st3" d="M345.58,169.66v-9.24h23.46v9.24h-23.46Z"/>
    <path class="st3" d="M365.59,169.66v-9.24h6.04c12.65,0,18.97-5.66,18.97-16.99v-32.33l11.56-5.21v37.85c0,8.34-2.82,14.85-8.45,19.52-5.17,4.27-12.07,6.41-20.7,6.41h-7.42ZM375.93,86.22c-4.72,0-7.07-2.09-7.07-6.26s2.36-5.96,7.07-5.96,6.73,1.99,6.73,5.96c0,4.17-2.24,6.26-6.73,6.26ZM385.59,70.73c-4.26,0-6.38-1.89-6.38-5.66s2.13-5.51,6.38-5.51,6.21,1.84,6.21,5.51-2.07,5.66-6.21,5.66ZM395.6,86.22c-4.72,0-7.07-2.09-7.07-6.26s2.36-5.96,7.07-5.96,6.73,1.99,6.73,5.96c0,4.17-2.24,6.26-6.73,6.26Z"/>
    <path class="st3" d="M526.69,160.42h6.04v9.24h-7.42c-10.58,0-18.46-3.13-23.63-9.39-5.41,6.26-13.4,9.39-23.98,9.39h-56.58l5.52-9.24h26.39v-62.28l11.38-5.21v67.5h12.07c13.11,0,19.66-5.86,19.66-17.58v-64.07l11.38-5.21v32.48l.17-.15v37.55c0,11.32,6.32,16.99,18.97,16.99Z"/>
    <path class="st3" d="M529.28,169.66v-9.24h23.46v9.24h-23.46Z"/>
    <path class="st3" d="M604.83,160.42h6.04v9.24h-7.42c-10.35,0-18.11-3.03-23.29-9.09-5.41,6.06-13.22,9.09-23.46,9.09h-7.42v-9.24h6.04c12.65,0,18.97-5.66,18.97-16.99v-32.33l11.56-5.21v37.55c0,11.32,6.32,16.99,18.97,16.99ZM567.4,86.67c-4.72,0-7.07-2.03-7.07-6.11s2.36-6.11,7.07-6.11,6.73,2.04,6.73,6.11-2.24,6.11-6.73,6.11ZM577.06,71.17c-4.48,0-6.73-1.99-6.73-5.96s2.24-5.81,6.73-5.81,6.55,1.94,6.55,5.81-2.19,5.96-6.55,5.96ZM579.99,80.56c0-4.07,2.36-6.11,7.07-6.11s6.73,2.04,6.73,6.11-2.24,6.11-6.73,6.11c-4.72,0-7.07-2.03-7.07-6.11Z"/>
    <path class="st3" d="M607.42,169.66v-9.24h4.83c13.11,0,19.66-5.86,19.66-17.58v-64.07l11.56-5.21v69.43c0,8.44-2.88,15.1-8.62,19.97-5.41,4.47-12.54,6.7-21.39,6.7h-6.04Z"/>
    <path class="st3" d="M674.52,169.66v-90.89l11.56-5.21v96.1h-11.56Z"/>
  </g>
  <g>
    <path class="st3" d="M31.34,228.47c-1.75-1.06-2.62-2.99-2.62-5.79,0-2.15.54-3.82,1.61-5,.93-1.02,2.18-1.52,3.75-1.52,1.48,0,2.65.44,3.5,1.33.85.88,1.28,2.11,1.28,3.67v2.74c0,1.6-.43,2.87-1.28,3.81-.81.91-1.95,1.39-3.41,1.43h-3.62c-2.8,0-4.2,1.44-4.2,4.33v4.81l-.82.46v-5.27c0-1.58.46-2.83,1.37-3.75.85-.83,2.01-1.25,3.47-1.25h.98ZM38.05,224.02v-2.56c0-3.07-1.32-4.6-3.96-4.6-1.42,0-2.53.52-3.32,1.55-.79,1.04-1.19,2.47-1.19,4.29s.4,3.29,1.19,4.33c.75.96,1.75,1.43,2.99,1.43,2.86,0,4.3-1.48,4.3-4.45Z"/>
    <path class="st3" d="M44.69,229.29c-.43,0-.64-.22-.64-.67s.21-.7.64-.7.64.22.64.67-.21.7-.64.7Z"/>
    <path class="st3" d="M54.49,228.47c-1.75-1.06-2.62-2.99-2.62-5.79,0-2.15.54-3.82,1.61-5,.93-1.02,2.18-1.52,3.75-1.52,1.48,0,2.65.44,3.5,1.33.85.88,1.28,2.11,1.28,3.67v2.74c0,1.6-.43,2.87-1.28,3.81-.81.91-1.95,1.39-3.41,1.43h-3.62c-2.8,0-4.2,1.44-4.2,4.33v4.81l-.82.46v-5.27c0-1.58.46-2.83,1.37-3.75.85-.83,2.01-1.25,3.47-1.25h.98ZM61.2,224.02v-2.56c0-3.07-1.32-4.6-3.96-4.6-1.42,0-2.53.52-3.32,1.55-.79,1.04-1.19,2.47-1.19,4.29s.4,3.29,1.19,4.33c.75.96,1.75,1.43,2.99,1.43,2.86,0,4.3-1.48,4.3-4.45Z"/>
    <path class="st3" d="M67.84,229.29c-.43,0-.64-.22-.64-.67s.21-.7.64-.7.64.22.64.67-.21.7-.64.7Z"/>
    <path class="st3" d="M71.52,229.14l.37-.67h6.31c1.18,0,2-.3,2.47-.9.47-.6.7-1.65.7-3.15,0-3.47-1.45-6.03-4.36-7.68l.4-.61c3.21,1.85,4.81,4.62,4.81,8.32,0,3.13-1.31,4.69-3.93,4.69h-6.76ZM77.55,211.77c-.49,0-.73-.24-.73-.73s.24-.73.73-.73c.45,0,.67.24.67.73s-.22.73-.67.73Z"/>
    <path class="st3" d="M106.1,228.47h.33v.67h-.52c-2.42,0-3.95-1.06-4.6-3.17-1.14,1.5-2.62,2.25-4.45,2.25-1.67,0-2.97-.64-3.9-1.92-.81-1.1-1.22-2.49-1.22-4.17,0-1.91.52-3.43,1.55-4.57.91-.99,2.11-1.49,3.59-1.49,1.75,0,3.14.61,4.17,1.83v-2.41l.82-.43v9.08c0,2.88,1.4,4.33,4.2,4.33ZM101.07,219.05c-1.12-1.52-2.53-2.28-4.23-2.28-1.26,0-2.28.49-3.06,1.48-.78.99-1.17,2.27-1.17,3.85s.41,2.93,1.22,3.93c.77.93,1.78,1.4,3.02,1.4,1.73,0,3.16-.78,4.29-2.35-.04-.41-.06-.73-.06-.97v-5.06ZM97.02,211.92c-.49,0-.73-.25-.73-.76,0-.47.24-.7.73-.7.45,0,.67.23.67.7,0,.51-.22.76-.67.76ZM99.67,211.92c-.47,0-.7-.25-.7-.76,0-.47.23-.7.7-.7s.7.23.7.7c0,.51-.23.76-.7.76Z"/>
    <path class="st3" d="M105.82,229.14v-.67h4.14v.67h-4.14Z"/>
    <path class="st3" d="M109.35,229.14v-.67h4.14v.67h-4.14Z"/>
    <path class="st3" d="M112.89,229.14v-.67h4.14v.67h-4.14Z"/>
    <path class="st3" d="M116.42,229.14v-.67h4.14v.67h-4.14Z"/>
    <path class="st3" d="M119.96,229.14v-.67h4.14v.67h-4.14Z"/>
    <path class="st3" d="M123.49,229.14v-.67h4.14v.67h-4.14Z"/>
    <path class="st3" d="M127.02,229.14v-.67h4.14v.67h-4.14Z"/>
    <path class="st3" d="M130.55,229.14v-.67h4.14v.67h-4.14Z"/>
    <path class="st3" d="M134.09,229.14v-.67h4.14v.67h-4.14Z"/>
    <path class="st3" d="M137.62,229.14v-.67h4.14v.67h-4.14Z"/>
    <path class="st3" d="M141.16,229.14v-.67h4.14v.67h-4.14Z"/>
    <path class="st3" d="M144.69,229.14v-.67h4.14v.67h-4.14Z"/>
    <path class="st3" d="M148.22,229.14v-.67h4.14v.67h-4.14Z"/>
    <path class="st3" d="M151.76,229.14v-.67h4.14v.67h-4.14Z"/>
    <path class="st3" d="M155.29,229.14v-.67h4.14v.67h-4.14Z"/>
    <path class="st3" d="M158.82,229.14v-.67h4.14v.67h-4.14Z"/>
    <path class="st3" d="M162.36,229.14v-.67h4.14v.67h-4.14Z"/>
    <path class="st3" d="M165.89,229.14v-.67h4.14v.67h-4.14Z"/>
    <path class="st3" d="M169.42,229.14v-.67h4.14v.67h-4.14Z"/>
    <path class="st3" d="M172.96,229.14v-.67h4.14v.67h-4.14Z"/>
    <path class="st3" d="M176.49,229.14v-.67h4.14v.67h-4.14Z"/>
    <path class="st3" d="M180.02,229.14v-.67h4.14v.67h-4.14Z"/>
    <path class="st3" d="M183.56,229.14v-.67h4.14v.67h-4.14Z"/>
    <path class="st3" d="M187.09,229.14v-.67h4.14v.67h-4.14Z"/>
    <path class="st3" d="M190.62,229.14v-.67h4.14v.67h-4.14Z"/>
    <path class="st3" d="M194.16,229.14v-.67h.33c2.8,0,4.2-1.44,4.2-4.33v-7.28l.82-.46v7.71c0,1.6-.46,2.85-1.37,3.75-.85.85-2.01,1.28-3.47,1.28h-.52ZM195.13,234.1c-.49,0-.73-.25-.73-.76,0-.47.24-.7.73-.7.45,0,.67.23.67.7,0,.51-.22.76-.67.76ZM197.78,234.1c-.47,0-.7-.25-.7-.76,0-.47.23-.7.7-.7s.7.23.7.7c0,.51-.23.76-.7.76Z"/>
    <path class="st3" d="M210,227.98c0,3.66-1.36,5.89-4.08,6.7-.53.16-1.1.24-1.71.24-1.12,0-2.19-.25-3.23-.76v-.76c1.06.55,2.12.82,3.2.82s1.94-.26,2.71-.79c1.5-.97,2.25-2.79,2.25-5.45v-11.12l.85-.46v11.58Z"/>
    <path class="st3" d="M220.32,229.14c-1.5,0-2.69-.45-3.55-1.34-.86-.89-1.29-2.12-1.29-3.69v-14.16l.82-.46v14.65c0,2.88,1.4,4.33,4.2,4.33h.33v.67h-.52Z"/>
    <path class="st3" d="M220.23,229.14v-.67h4.14v.67h-4.14Z"/>
    <path class="st3" d="M223.77,229.14v-.67h4.14v.67h-4.14Z"/>
    <path class="st3" d="M227.3,229.14v-.67h4.14v.67h-4.14Z"/>
    <path class="st3" d="M230.83,229.14v-.67h4.14v.67h-4.14Z"/>
    <path class="st3" d="M234.37,229.14v-.67h4.14v.67h-4.14Z"/>
    <path class="st3" d="M237.9,229.14v-.67h4.14v.67h-4.14Z"/>
    <path class="st3" d="M241.43,229.14v-.67h4.14v.67h-4.14Z"/>
    <path class="st3" d="M244.97,229.14v-.67h4.14v.67h-4.14Z"/>
    <path class="st3" d="M248.5,229.14v-.67h4.14v.67h-4.14Z"/>
    <path class="st3" d="M252.03,229.14v-.67h4.14v.67h-4.14Z"/>
    <path class="st3" d="M274.82,228.47h.46v.67h-.49c-1.75,0-3.14-.2-4.17-.59s-2.01-1.11-2.92-2.15c-2.54,1.83-5.57,2.74-9.11,2.74h-3.02v-.67h3.05c4.97,0,8.83-1.8,11.58-5.39-2.05-4.14-4.59-6.21-7.62-6.21-1.79,0-3.42.87-4.9,2.62v-1.07c1.62-1.5,3.24-2.25,4.84-2.25h.06c3.09,0,5.78,2.11,8.07,6.34v1.07c-.67.87-1.48,1.7-2.44,2.47.75.91,1.61,1.55,2.59,1.9.97.36,2.31.53,4.02.53ZM263.09,232.64c.45,0,.67.24.67.73s-.22.73-.67.73c-.49,0-.73-.24-.73-.73s.24-.73.73-.73Z"/>
    <path class="st3" d="M284.23,228.47h.33v.67h-.52c-2.19,0-3.67-.91-4.42-2.74-.75,1.83-2.23,2.74-4.45,2.74h-.52v-.67h.33c2.8,0,4.2-1.44,4.2-4.33v-7.28l.82-.46v7.74c0,2.88,1.4,4.33,4.2,4.33ZM278.29,211.68c-.49,0-.73-.25-.73-.76s.24-.73.73-.73c.45,0,.67.24.67.73s-.22.76-.67.76ZM280.97,211.68c-.49,0-.73-.25-.73-.76s.24-.73.73-.73c.45,0,.67.24.67.73s-.22.76-.67.76Z"/>
    <path class="st3" d="M283.96,229.14v-.67h.55c2.72,0,4.08-1.4,4.08-4.2v-14.35l.82-.43v14.8c0,1.5-.42,2.69-1.25,3.55-.83.86-1.98,1.29-3.44,1.29h-.76Z"/>
    <path class="st3" d="M294.89,229.14v-19.22l.82-.43v19.65h-.82Z"/>
    <path class="st3" d="M312.31,229.14c-1.42,0-2.55-.45-3.38-1.34-.83-.89-1.25-2.09-1.25-3.59v-4.6l.85-.46v4.81c0,3.01,1.39,4.51,4.17,4.51h10.39c2.76,0,4.14-1.5,4.14-4.51v-7.1l.82-.46v7.8c0,1.52-.44,2.73-1.31,3.61-.87.88-2.06,1.33-3.56,1.33h-10.87ZM315.64,214.97c-.49,0-.73-.25-.73-.76,0-.47.24-.7.73-.7.45,0,.67.23.67.7,0,.51-.22.76-.67.76ZM318.32,214.97c-.49,0-.73-.25-.73-.76,0-.47.24-.7.73-.7.45,0,.67.23.67.7,0,.51-.22.76-.67.76Z"/>
    <path class="st3" d="M344.24,209.91l.85-.43v14.8c0,1.5-.42,2.69-1.26,3.55-.84.86-1.98,1.29-3.43,1.29h-8.99l.37-.67h5.06v-14.59l.82-.43v15.02h2.53c2.7,0,4.05-1.4,4.05-4.2v-14.35Z"/>
    <path class="st3" d="M355.42,229.14c-1.5,0-2.69-.45-3.55-1.34-.86-.89-1.29-2.12-1.29-3.69v-14.16l.82-.46v14.65c0,2.88,1.4,4.33,4.2,4.33h.33v.67h-.52Z"/>
    <path class="st3" d="M355.33,229.14v-.67h4.14v.67h-4.14Z"/>
    <path class="st3" d="M358.86,229.14v-.67h4.14v.67h-4.14Z"/>
    <path class="st3" d="M362.39,229.14v-.67h4.14v.67h-4.14Z"/>
    <path class="st3" d="M365.93,229.14v-.67h4.14v.67h-4.14Z"/>
    <path class="st3" d="M369.46,229.14v-.67h4.14v.67h-4.14Z"/>
    <path class="st3" d="M372.99,229.14v-.67h4.14v.67h-4.14Z"/>
    <path class="st3" d="M376.53,229.14v-.67h4.14v.67h-4.14Z"/>
    <path class="st3" d="M380.06,229.14v-.67h4.14v.67h-4.14Z"/>
    <path class="st3" d="M383.59,229.14v-.67h4.14v.67h-4.14Z"/>
    <path class="st3" d="M387.13,229.14v-.67h4.14v.67h-4.14Z"/>
    <path class="st3" d="M390.66,229.14v-.67h4.14v.67h-4.14Z"/>
    <path class="st3" d="M394.19,229.14v-.67h4.14v.67h-4.14Z"/>
    <path class="st3" d="M397.73,229.14v-.67h4.14v.67h-4.14Z"/>
    <path class="st3" d="M401.26,229.14v-.67h4.14v.67h-4.14Z"/>
    <path class="st3" d="M404.79,229.14v-.67h4.14v.67h-4.14Z"/>
    <path class="st3" d="M408.33,229.14v-.67h4.14v.67h-4.14Z"/>
    <path class="st3" d="M411.86,229.14v-.67h4.14v.67h-4.14Z"/>
    <path class="st3" d="M415.39,229.14v-.67h4.14v.67h-4.14Z"/>
    <path class="st3" d="M418.93,229.14v-.67h4.14v.67h-4.14Z"/>
    <path class="st3" d="M422.46,229.14v-.67h4.14v.67h-4.14Z"/>
    <path class="st3" d="M425.99,229.14v-.67h4.14v.67h-4.14Z"/>
    <path class="st3" d="M429.53,229.14v-.67h4.14v.67h-4.14Z"/>
    <path class="st3" d="M433.06,229.14v-.67h4.14v.67h-4.14Z"/>
    <path class="st3" d="M436.59,229.14v-.67h4.14v.67h-4.14Z"/>
    <path class="st3" d="M443.6,217.29c.59-.12,1.2-.18,1.83-.18,1.81,0,3.32.44,4.54,1.31,1.6,1.16,2.41,2.85,2.41,5.09v.67c0,1.54-.44,2.76-1.31,3.64s-2.06,1.33-3.56,1.33h-7.37v-.67h7.28c2.74,0,4.11-1.51,4.11-4.54v-.43c0-1.83-.61-3.22-1.83-4.17-1.1-.87-2.52-1.31-4.26-1.31-1.12,0-2.2.18-3.26.55v-.85l7.4-8.22h.94l-6.91,7.8Z"/>
    <path class="st3" d="M469.77,228.47v.67h-3.29v.12c0,1.73-.63,3.15-1.89,4.26-1.1.95-2.39,1.43-3.87,1.43-1.12,0-2.19-.24-3.23-.73v-.79c1.06.55,2.12.82,3.2.82s2.01-.27,2.8-.82c.63-.47,1.15-1.09,1.55-1.87s.61-1.55.61-2.3v-.12h-1.31c-.69-.02-1.28-.03-1.77-.03-4.37,0-6.55-2.14-6.55-6.43,0-2.17.54-3.84,1.61-5,.98-1.02,2.28-1.52,3.93-1.52,1.54,0,2.75.44,3.61,1.31.86.87,1.29,2.1,1.29,3.69v7.31h3.29ZM465.65,221.43c0-3.05-1.36-4.57-4.08-4.57-1.66,0-2.9.62-3.72,1.86-.65,1.02-.97,2.35-.97,3.99,0,3.68,1.88,5.59,5.64,5.73.49,0,1.09.01,1.8.03h1.34v-7.04Z"/>
    <path class="st3" d="M469.16,229.14v-.67h.55c2.72,0,4.08-1.4,4.08-4.2v-14.35l.82-.43v14.8c0,1.5-.42,2.69-1.25,3.55-.83.86-1.98,1.29-3.44,1.29h-.76Z"/>
    <path class="st3" d="M480.09,229.14v-19.22l.82-.43v19.65h-.82Z"/>
    <path class="st3" d="M494.81,227.34c-.95,1.06-2.36,1.58-4.2,1.58-1.69,0-2.99-.65-3.9-1.95-.81-1.14-1.22-2.63-1.22-4.48,0-2.07.54-3.68,1.61-4.81.93-1.02,2.18-1.52,3.75-1.52s2.68.44,3.52,1.33c.84.88,1.26,2.11,1.26,3.67v6.82c0,3.43-1.2,5.65-3.59,6.64-.69.22-1.41.33-2.16.33-1.12,0-2.19-.24-3.23-.73v-.79c1.06.55,2.12.82,3.2.82s2.01-.27,2.8-.82c1.44-1.08,2.16-2.89,2.16-5.45v-.64ZM494.81,221.46c0-3.07-1.32-4.6-3.96-4.6-1.4,0-2.51.51-3.34,1.52s-1.23,2.4-1.23,4.14.42,3.17,1.25,4.2c.77.93,1.79,1.4,3.05,1.4,2.19,0,3.6-.65,4.23-1.95v-4.72Z"/>
    <path class="st3" d="M511.92,229.14c-1.42,0-2.55-.45-3.38-1.34-.83-.89-1.25-2.09-1.25-3.59v-4.6l.85-.46v4.81c0,3.01,1.39,4.51,4.17,4.51h10.39c2.76,0,4.14-1.5,4.14-4.51v-7.1l.82-.46v7.8c0,1.52-.44,2.73-1.31,3.61-.87.88-2.06,1.33-3.56,1.33h-10.87ZM515.24,214.97c-.49,0-.73-.25-.73-.76,0-.47.24-.7.73-.7.45,0,.67.23.67.7,0,.51-.22.76-.67.76ZM517.93,214.97c-.49,0-.73-.25-.73-.76,0-.47.24-.7.73-.7.45,0,.67.23.67.7,0,.51-.22.76-.67.76Z"/>
    <path class="st3" d="M533.16,229.14v-19.22l.82-.43v19.65h-.82Z"/>
    <path class="st3" d="M537.02,229.14l.37-.67h6.31c1.18,0,2-.3,2.47-.9.47-.6.7-1.65.7-3.15,0-3.47-1.45-6.02-4.36-7.65l.4-.64c3.21,1.83,4.81,4.46,4.81,7.89v.33c0,2.74,1.36,4.11,4.08,4.11h.43v.67h-.64c-1.95,0-3.35-.71-4.2-2.13-.63,1.42-1.83,2.13-3.59,2.13h-6.76Z"/>
    <path class="st3" d="M551.61,229.14v-.67h4.14v.67h-4.14Z"/>
    <path class="st3" d="M555.15,229.14v-.67h4.14v.67h-4.14Z"/>
    <path class="st3" d="M558.68,229.14v-.67h4.14v.67h-4.14Z"/>
    <path class="st3" d="M562.22,229.14v-.67h4.14v.67h-4.14Z"/>
    <path class="st3" d="M565.75,229.14v-.67h4.14v.67h-4.14Z"/>
    <path class="st3" d="M569.28,229.14v-.67h4.14v.67h-4.14Z"/>
    <path class="st3" d="M572.82,229.14v-.67h4.14v.67h-4.14Z"/>
    <path class="st3" d="M576.35,229.14v-.67h4.14v.67h-4.14Z"/>
    <path class="st3" d="M579.88,229.14v-.67h4.14v.67h-4.14Z"/>
    <path class="st3" d="M583.42,229.14v-.67h4.14v.67h-4.14Z"/>
    <path class="st3" d="M586.95,229.14v-.67h4.14v.67h-4.14Z"/>
    <path class="st3" d="M590.48,229.14v-.67h4.14v.67h-4.14Z"/>
    <path class="st3" d="M594.02,229.14v-.67h4.14v.67h-4.14Z"/>
    <path class="st3" d="M597.55,229.14v-.67h4.14v.67h-4.14Z"/>
    <path class="st3" d="M601.08,229.14v-.67h4.14v.67h-4.14Z"/>
    <path class="st3" d="M604.62,229.14v-.67h4.14v.67h-4.14Z"/>
    <path class="st3" d="M608.15,229.14v-.67h.33c2.8,0,4.2-1.44,4.2-4.33v-7.28l.82-.46v7.71c0,1.6-.46,2.85-1.37,3.75-.85.85-2.01,1.28-3.47,1.28h-.52ZM609.12,234.1c-.49,0-.73-.25-.73-.76,0-.47.24-.7.73-.7.45,0,.67.23.67.7,0,.51-.22.76-.67.76ZM611.78,234.1c-.47,0-.7-.25-.7-.76,0-.47.23-.7.7-.7s.7.23.7.7c0,.51-.23.76-.7.76Z"/>
    <path class="st3" d="M623.99,227.98c0,3.66-1.36,5.89-4.08,6.7-.53.16-1.1.24-1.71.24-1.12,0-2.19-.25-3.23-.76v-.76c1.06.55,2.12.82,3.2.82s1.94-.26,2.71-.79c1.5-.97,2.25-2.79,2.25-5.45v-11.12l.85-.46v11.58Z"/>
    <path class="st3" d="M642.3,228.47v.67h-3.29v.12c0,1.73-.63,3.15-1.89,4.26-1.1.95-2.39,1.43-3.87,1.43-1.12,0-2.19-.24-3.23-.73v-.79c1.06.55,2.12.82,3.2.82s2.01-.27,2.8-.82c.63-.47,1.15-1.09,1.55-1.87s.61-1.55.61-2.3v-.12h-1.31c-.69-.02-1.28-.03-1.77-.03-4.37,0-6.55-2.14-6.55-6.43,0-2.17.54-3.84,1.61-5,.98-1.02,2.28-1.52,3.93-1.52,1.54,0,2.75.44,3.61,1.31.86.87,1.29,2.1,1.29,3.69v7.31h3.29ZM638.18,221.43c0-3.05-1.36-4.57-4.08-4.57-1.66,0-2.9.62-3.72,1.86-.65,1.02-.97,2.35-.97,3.99,0,3.68,1.88,5.59,5.64,5.73.49,0,1.09.01,1.8.03h1.34v-7.04Z"/>
    <path class="st3" d="M641.69,229.14v-.67h4.14v.67h-4.14Z"/>
    <path class="st3" d="M645.22,229.14v-.67h4.14v.67h-4.14Z"/>
    <path class="st3" d="M648.75,229.14v-.67h4.14v.67h-4.14Z"/>
    <path class="st3" d="M652.29,229.14v-.67h4.14v.67h-4.14Z"/>
    <path class="st3" d="M655.82,229.14v-.67h4.14v.67h-4.14Z"/>
    <path class="st3" d="M668.92,228.47h.33v.67h-.52c-2.19,0-3.67-.91-4.42-2.74-.75,1.83-2.23,2.74-4.45,2.74h-.52v-.67h.33c2.8,0,4.2-1.44,4.2-4.33v-7.28l.82-.46v7.74c0,2.88,1.4,4.33,4.2,4.33ZM662.98,211.68c-.49,0-.73-.25-.73-.76s.24-.73.73-.73c.45,0,.67.24.67.73s-.22.76-.67.76ZM665.66,211.68c-.49,0-.73-.25-.73-.76s.24-.73.73-.73c.45,0,.67.24.67.73s-.22.76-.67.76Z"/>
    <path class="st3" d="M678.3,228.47h.33v.67h-.52c-2.17,0-3.64-.89-4.42-2.68-.69,1.79-2.12,2.68-4.3,2.68h-.76v-.67h.55c2.72,0,4.08-1.4,4.08-4.2v-14.35l.82-.43v14.65c0,2.88,1.4,4.33,4.2,4.33Z"/>
    <path class="st3" d="M678.03,229.14v-.67h.55c2.72,0,4.08-1.4,4.08-4.2v-14.35l.82-.43v14.8c0,1.5-.42,2.69-1.25,3.55-.83.86-1.98,1.29-3.44,1.29h-.76Z"/>
  </g>
</svg>